<svg width="34" height="34" viewBox="0 0 34 34" fill="none" xmlns="http://www.w3.org/2000/svg">
<rect width="34" height="34" rx="8" fill="#FF6767"/>
<path d="M23.3276 11.0946L19.9247 11.0946V10.2474C19.9247 10.0125 19.7345 9.82227 19.4997 9.82227C19.2648 9.82227 19.0747 10.0125 19.0747 10.2474V11.0944H15.6747V10.2474C15.6747 10.0125 15.4845 9.82227 15.2497 9.82227C15.0148 9.82227 14.8247 10.0125 14.8247 10.2474V11.0944H11.4276C10.9582 11.0944 10.5776 11.4751 10.5776 11.9446V22.5721C10.5776 23.0416 10.9582 23.4223 11.4276 23.4223H23.3276C23.797 23.4223 24.1776 23.0416 24.1776 22.5721V11.9446C24.1776 11.4753 23.797 11.0946 23.3276 11.0946ZM23.3276 22.5721H11.4276V11.9446H14.8247V12.3729C14.8247 12.6077 15.0148 12.798 15.2497 12.798C15.4845 12.798 15.6747 12.6077 15.6747 12.3729V11.9448H19.0747V12.3731C19.0747 12.6079 19.2648 12.7982 19.4997 12.7982C19.7345 12.7982 19.9247 12.6079 19.9247 12.3731V11.9448H23.3276V22.5721ZM20.3526 16.6209H21.2026C21.4372 16.6209 21.6276 16.4304 21.6276 16.1958V15.3456C21.6276 15.1109 21.4372 14.9205 21.2026 14.9205H20.3526C20.118 14.9205 19.9276 15.1109 19.9276 15.3456V16.1958C19.9276 16.4304 20.118 16.6209 20.3526 16.6209ZM20.3526 20.0215H21.2026C21.4372 20.0215 21.6276 19.8312 21.6276 19.5964V18.7462C21.6276 18.5115 21.4372 18.3211 21.2026 18.3211H20.3526C20.118 18.3211 19.9276 18.5115 19.9276 18.7462V19.5964C19.9276 19.8314 20.118 20.0215 20.3526 20.0215ZM17.8026 18.3211H16.9526C16.718 18.3211 16.5276 18.5115 16.5276 18.7462V19.5964C16.5276 19.8312 16.718 20.0215 16.9526 20.0215H17.8026C18.0372 20.0215 18.2276 19.8312 18.2276 19.5964V18.7462C18.2276 18.5117 18.0372 18.3211 17.8026 18.3211ZM17.8026 14.9205H16.9526C16.718 14.9205 16.5276 15.1109 16.5276 15.3456V16.1958C16.5276 16.4304 16.718 16.6209 16.9526 16.6209H17.8026C18.0372 16.6209 18.2276 16.4304 18.2276 16.1958V15.3456C18.2276 15.1107 18.0372 14.9205 17.8026 14.9205ZM14.4026 14.9205H13.5526C13.318 14.9205 13.1276 15.1109 13.1276 15.3456V16.1958C13.1276 16.4304 13.318 16.6209 13.5526 16.6209H14.4026C14.6372 16.6209 14.8276 16.4304 14.8276 16.1958V15.3456C14.8276 15.1107 14.6372 14.9205 14.4026 14.9205ZM14.4026 18.3211H13.5526C13.318 18.3211 13.1276 18.5115 13.1276 18.7462V19.5964C13.1276 19.8312 13.318 20.0215 13.5526 20.0215H14.4026C14.6372 20.0215 14.8276 19.8312 14.8276 19.5964V18.7462C14.8276 18.5117 14.6372 18.3211 14.4026 18.3211Z" fill="#F8F8FB"/>
</svg>
