<svg width="99" height="37" viewBox="0 0 99 37" fill="none" xmlns="http://www.w3.org/2000/svg">
<rect x="0.575684" y="0.862305" width="97.3469" height="35.2755" rx="7.5" stroke="#FF6767"/>
<path d="M36.351 22.1276V23.7398H26.6775V22.1276C26.6775 22.1276 26.6775 18.9031 31.5143 18.9031C36.351 18.9031 36.351 22.1276 36.351 22.1276ZM33.9326 14.8725C33.9326 14.3942 33.7908 13.9266 33.5251 13.5289C33.2593 13.1312 32.8816 12.8212 32.4397 12.6382C31.9978 12.4551 31.5116 12.4073 31.0425 12.5006C30.5733 12.5939 30.1424 12.8242 29.8042 13.1624C29.466 13.5006 29.2357 13.9316 29.1424 14.4007C29.049 14.8698 29.0969 15.356 29.28 15.7979C29.463 16.2398 29.773 16.6175 30.1707 16.8833C30.5684 17.149 31.036 17.2908 31.5143 17.2908C32.1556 17.2908 32.7708 17.036 33.2243 16.5825C33.6778 16.129 33.9326 15.5139 33.9326 14.8725ZM36.5122 18.9514C36.9529 19.358 37.3081 19.8482 37.5573 20.3935C37.8064 20.9389 37.9444 21.5283 37.9632 22.1276V23.7398H40.3816V22.1276C40.3816 22.1276 40.3816 19.3464 36.5122 18.9514ZM35.5449 12.4541C35.3013 12.4542 35.0593 12.4923 34.8274 12.567C35.299 13.2433 35.5519 14.048 35.5519 14.8725C35.5519 15.697 35.299 16.5017 34.8274 17.178C35.0593 17.2526 35.3013 17.2907 35.5449 17.2908C36.1863 17.2908 36.8014 17.036 37.2549 16.5825C37.7084 16.129 37.9632 15.5139 37.9632 14.8725C37.9632 14.2311 37.7084 13.616 37.2549 13.1624C36.8014 12.7089 36.1863 12.4541 35.5449 12.4541ZM27.4836 16.4847H25.0653V14.0663H23.453V16.4847H21.0347V18.097H23.453V20.5153H25.0653V18.097H27.4836V16.4847Z" fill="#FF6767"/>
<path d="M50.2915 15.4663V25.6481H48.7553V15.4663H50.2915ZM53.896 21.114V25.6481H52.4094V18.0117H53.8363V19.2546H53.9308C54.1064 18.8502 54.3815 18.5254 54.756 18.2802C55.1339 18.0349 55.6095 17.9123 56.1829 17.9123C56.7032 17.9123 57.159 18.0217 57.5501 18.2404C57.9412 18.4558 58.2444 18.7773 58.4599 19.2049C58.6753 19.6324 58.783 20.1611 58.783 20.7908V25.6481H57.2965V20.9698C57.2965 20.4163 57.1523 19.9838 56.864 19.6722C56.5756 19.3574 56.1796 19.1999 55.6758 19.1999C55.3311 19.1999 55.0245 19.2745 54.756 19.4236C54.4909 19.5728 54.2804 19.7915 54.1246 20.0799C53.9722 20.3649 53.896 20.7096 53.896 21.114ZM67.0359 18.0117L64.2667 25.6481H62.6758L59.9016 18.0117H61.4975L63.4315 23.8881H63.511L65.44 18.0117H67.0359ZM68.4329 25.6481V18.0117H69.9194V25.6481H68.4329ZM69.1836 16.8334C68.9251 16.8334 68.703 16.7473 68.5174 16.5749C68.3351 16.3993 68.244 16.1904 68.244 15.9485C68.244 15.7032 68.3351 15.4944 68.5174 15.3221C68.703 15.1464 68.9251 15.0586 69.1836 15.0586C69.4421 15.0586 69.6625 15.1464 69.8448 15.3221C70.0304 15.4944 70.1232 15.7032 70.1232 15.9485C70.1232 16.1904 70.0304 16.3993 69.8448 16.5749C69.6625 16.7473 69.4421 16.8334 69.1836 16.8334ZM75.4838 18.0117V19.2049H71.3127V18.0117H75.4838ZM72.4313 16.1822H73.9178V23.4059C73.9178 23.6942 73.9609 23.9113 74.0471 24.0572C74.1332 24.1997 74.2443 24.2975 74.3801 24.3505C74.5194 24.4002 74.6702 24.4251 74.8326 24.4251C74.9519 24.4251 75.0563 24.4168 75.1458 24.4002C75.2353 24.3836 75.3049 24.3704 75.3546 24.3604L75.623 25.5884C75.5369 25.6216 75.4142 25.6547 75.2551 25.6878C75.0961 25.7243 74.8972 25.7442 74.6586 25.7475C74.2675 25.7541 73.9029 25.6845 73.5648 25.5387C73.2267 25.3929 72.9533 25.1675 72.7445 24.8626C72.5357 24.5576 72.4313 24.1748 72.4313 23.7141V16.1822ZM80.3374 25.8022C79.585 25.8022 78.937 25.6414 78.3935 25.3199C77.8532 24.9951 77.4356 24.5394 77.1406 23.9528C76.849 23.3628 76.7031 22.6717 76.7031 21.8796C76.7031 21.0974 76.849 20.408 77.1406 19.8114C77.4356 19.2148 77.8466 18.7492 78.3736 18.4144C78.9039 18.0797 79.5237 17.9123 80.233 17.9123C80.6638 17.9123 81.0814 17.9835 81.4858 18.1261C81.8902 18.2686 82.2531 18.4923 82.5746 18.7972C82.8961 19.1021 83.1496 19.4982 83.3352 19.9854C83.5208 20.4693 83.6136 21.0576 83.6136 21.7503V22.2773H77.5433V21.1637H82.157C82.157 20.7726 82.0774 20.4262 81.9183 20.1246C81.7592 19.8197 81.5355 19.5794 81.2472 19.4038C80.9621 19.2281 80.6274 19.1403 80.2429 19.1403C79.8253 19.1403 79.4607 19.243 79.1491 19.4485C78.8409 19.6507 78.6023 19.9158 78.4332 20.244C78.2675 20.5688 78.1847 20.9217 78.1847 21.3029V22.1729C78.1847 22.6833 78.2741 23.1175 78.4531 23.4755C78.6354 23.8334 78.889 24.1069 79.2138 24.2958C79.5386 24.4814 79.9181 24.5742 80.3523 24.5742C80.634 24.5742 80.8909 24.5344 81.1229 24.4549C81.3549 24.372 81.5554 24.2494 81.7244 24.087C81.8935 23.9246 82.0227 23.7241 82.1122 23.4854L83.5192 23.739C83.4065 24.1533 83.2043 24.5162 82.9126 24.8278C82.6243 25.136 82.2614 25.3763 81.8239 25.5486C81.3897 25.7177 80.8942 25.8022 80.3374 25.8022Z" fill="#FF6767"/>
</svg>
