<svg width="8" height="20" viewBox="0 0 8 20" fill="none" xmlns="http://www.w3.org/2000/svg">
<path d="M3.875 0C2.84729 0 1.86166 0.408258 1.13496 1.13496C0.408258 1.86166 0 2.84729 0 3.875C0 6.795 1.207 10.427 1.813 12.074C1.96964 12.4942 2.25167 12.8561 2.62086 13.1106C2.99006 13.3651 3.42858 13.5 3.877 13.497C4.781 13.497 5.616 12.955 5.94 12.079C6.546 10.439 7.75 6.825 7.75 3.875C7.75 2.84729 7.34174 1.86166 6.61504 1.13496C5.88834 0.408258 4.90271 0 3.875 0ZM3.876 14.998C3.21269 14.998 2.57655 15.2615 2.10753 15.7305C1.6385 16.1996 1.375 16.8357 1.375 17.499C1.375 18.1623 1.6385 18.7984 2.10753 19.2675C2.57655 19.7365 3.21269 20 3.876 20C4.53931 20 5.17545 19.7365 5.64447 19.2675C6.1135 18.7984 6.377 18.1623 6.377 17.499C6.377 16.8357 6.1135 16.1996 5.64447 15.7305C5.17545 15.2615 4.53931 14.998 3.876 14.998Z" fill="white"/>
</svg>
