<svg width="43" height="41" viewBox="0 0 43 41" fill="none" xmlns="http://www.w3.org/2000/svg">
<path d="M9.97058 32.1806C9.61701 32.1099 9.33416 32.0392 8.98059 31.8978C8.62703 31.7564 8.34417 31.6856 8.06132 31.5442C7.4249 31.2614 6.85919 30.9078 6.29349 30.4835C5.16207 29.7057 4.2428 28.645 3.53567 27.3721C2.82853 26.17 2.40425 24.7557 2.33354 23.4122C2.26283 22.7051 2.33354 22.0686 2.40425 21.3615C2.47497 21.0079 2.54568 20.7251 2.61639 20.3715C2.68711 20.0179 2.82853 19.7351 2.89925 19.3815L2.96996 20.3715C2.96996 20.7251 3.04067 21.0079 3.11139 21.3615C3.1821 21.9979 3.32353 22.6343 3.46495 23.2C3.74781 24.4022 4.17209 25.5336 4.80851 26.5943C5.44493 27.655 6.15206 28.645 7.07133 29.5642C7.49561 29.9885 7.99061 30.4128 8.4856 30.8371C8.69774 31.0492 8.98059 31.2614 9.26345 31.4735L9.97058 32.1806ZM9.75844 34.7263C9.5463 34.8677 9.26345 34.9385 8.98059 35.0092C8.69774 35.0799 8.4856 35.1506 8.20275 35.1506C7.70775 35.2213 7.14205 35.292 6.57634 35.2213C5.51564 35.1506 4.38423 34.8677 3.46495 34.3728C2.47497 33.8778 1.62641 33.0999 1.0607 32.1806C0.777847 31.7564 0.494993 31.2614 0.282853 30.7664C0.21214 30.5542 0.141427 30.2714 0.0707133 29.9885C0.0707133 29.7764 0 29.5642 0 29.2814C0.21214 29.4935 0.353567 29.7057 0.494993 29.8471C0.707133 30.0592 0.84856 30.2714 0.989987 30.4128C1.34355 30.7664 1.62641 31.1199 1.97997 31.4028C2.68711 32.0392 3.39424 32.6049 4.2428 33.0292C5.02065 33.4535 5.93992 33.807 6.78848 34.0899C7.21276 34.2313 7.70775 34.302 8.20275 34.4435C8.41489 34.5142 8.69774 34.5142 8.90988 34.5849C9.26345 34.6556 9.47559 34.6556 9.75844 34.7263ZM25.7397 0.359636C26.0932 0.430349 26.3761 0.571776 26.7296 0.713202C27.0832 0.854629 27.3661 0.996056 27.6489 1.13748C28.2853 1.49105 28.851 1.84462 29.4167 2.2689C30.5482 3.11746 31.4674 4.24887 32.1039 5.52171C32.7403 6.79455 33.0938 8.20882 33.0938 9.55237C33.0938 10.2595 33.0231 10.8959 32.8817 11.6031C32.811 11.9566 32.7403 12.2395 32.5988 12.593C32.4574 12.9466 32.3867 13.2295 32.2453 13.5123L32.1746 12.5223C32.1746 12.1688 32.1746 11.8859 32.1039 11.5323L31.8917 9.62308C31.6796 8.42096 31.2553 7.21883 30.6896 6.08742C30.1239 4.956 29.4167 3.96602 28.5682 3.04674C28.1439 2.55175 27.6489 2.12747 27.2246 1.63248C27.0125 1.42034 26.7296 1.2082 26.4468 0.996056L25.7397 0.359636ZM31.8917 0.0767822C32.1746 0.147496 32.3867 0.218209 32.5988 0.359636C32.811 0.430349 33.0938 0.571776 33.306 0.713202C33.7303 0.996056 34.1545 1.27891 34.5788 1.63248C35.3567 2.33961 35.9931 3.18817 36.3467 4.17816C36.7709 5.16814 36.9124 6.22884 36.7709 7.28954C36.7002 7.78454 36.5588 8.27953 36.4174 8.77452C36.3467 8.98666 36.2052 9.26952 36.1345 9.48166C35.9931 9.6938 35.9224 9.90594 35.7102 10.1181V9.41094V8.70381C35.7102 8.20882 35.6395 7.78454 35.6395 7.36026C35.4981 6.44098 35.3567 5.59242 35.0031 4.81458C34.6495 3.96602 34.2253 3.25888 33.7303 2.48104C33.4474 2.12747 33.1646 1.70319 32.8817 1.34962C32.7403 1.13748 32.5988 0.996056 32.3867 0.783916C32.2453 0.430349 32.0331 0.218209 31.8917 0.0767822Z" fill="#42ADE2"/>
<path d="M5.65709 10.6131C4.24282 11.2495 3.74783 12.9466 4.38425 14.3609L13.2941 32.9585L18.2441 30.6249L9.33418 11.9566C8.69776 10.5423 7.07135 9.90592 5.65709 10.6131ZM29.0632 25.3921L34.296 22.9172L24.1133 1.70317C23.4061 0.288908 21.709 -0.347512 20.224 0.359621C18.8098 1.06675 18.1733 2.76387 18.8805 4.24885L29.0632 25.3921Z" fill="#FFDD67"/>
<path d="M20.2949 0.28888C20.1535 0.359594 20.012 0.430307 19.8706 0.571733C21.2142 0.218167 22.6284 0.854587 23.2648 2.12743L33.4476 23.3414L34.3668 22.9172L24.1841 1.70315C23.477 0.218167 21.7799 -0.418253 20.2949 0.28888Z" fill="#EBA352"/>
<path d="M18.2438 30.5542L23.6887 27.9378L13.2939 6.2995C12.5867 4.81452 10.7482 4.10739 9.26321 4.81452C7.77823 5.52165 7.14181 7.3602 7.84894 8.84518L18.2438 30.5542Z" fill="#FFDD67"/>
<path d="M9.26364 4.88529C9.12221 4.956 8.98078 5.02672 8.83936 5.16814C10.1829 4.81458 11.7386 5.451 12.375 6.79455L18.8099 20.3008L20.3656 21.2201L13.2943 6.37027C12.5872 4.81458 10.8193 4.17816 9.26364 4.88529Z" fill="#EBA352"/>
<path d="M22.8405 26.2407L28.2854 23.6243L17.8905 1.98599C17.1834 0.501011 15.3449 -0.206123 13.8599 0.571724C12.3749 1.27886 11.7385 3.1174 12.4456 4.60238L22.8405 26.2407Z" fill="#FFDD67"/>
<path d="M13.8599 0.501013C13.7185 0.571727 13.5771 0.713153 13.4357 0.783866C14.7792 0.4303 16.3349 1.06672 16.9713 2.41027L24.2548 17.6844L25.8105 18.6036L17.8906 1.98599C17.1835 0.4303 15.3449 -0.20612 13.8599 0.501013ZM5.65719 10.613C5.51576 10.6837 5.37434 10.7544 5.23291 10.8959C6.50575 10.5423 7.8493 11.1787 8.41501 12.4516L13.7185 23.5536L15.2742 24.4728L9.33428 12.0273C8.69786 10.5423 7.07146 9.90589 5.65719 10.613Z" fill="#EBA352"/>
<path d="M41.5794 8.49169C39.6701 7.00671 36.5587 8.63312 35.003 13.7245C33.9423 17.2601 33.8009 18.3208 31.5381 19.3815L30.2652 16.7652C30.2652 16.7652 10.1827 26.4529 10.9605 28.0086C10.9605 28.0086 13.3648 35.5042 17.4661 38.9691C23.5475 44.2019 37.7609 38.6156 38.3973 25.1093C38.7508 17.2601 43.6301 10.1181 41.5794 8.49169Z" fill="#FFDD67"/>
<path d="M41.5795 8.49158C41.2259 8.20872 40.8016 8.0673 40.3773 7.99658C40.4481 8.0673 40.5895 8.0673 40.6602 8.13801C42.7816 9.76442 40.5895 13.5122 39.3874 16.9065C38.3974 19.5936 37.5488 22.3514 37.6902 25.0385C38.2559 36.7769 26.4468 42.3633 19.3755 40.2419C26.3054 43.1411 39.1752 37.6255 38.6095 25.3921C38.4681 22.705 39.2459 20.0886 40.3066 17.26C41.438 13.8658 43.6302 10.118 41.5795 8.49158Z" fill="#EBA352"/>
<path d="M32.1748 19.0985C27.7905 19.5935 21.3556 25.887 25.8813 32.7462C22.5578 25.8163 28.0027 21.1492 31.4676 19.5228C31.8212 19.2399 32.1748 19.0985 32.1748 19.0985Z" fill="#EBA352"/>
</svg>
