<svg width="34" height="34" viewBox="0 0 34 34" fill="none" xmlns="http://www.w3.org/2000/svg">
<rect width="34" height="34" rx="8" fill="#FF6767"/>
<path d="M19.3704 24.4889C19.3704 24.6068 19.3246 24.7199 19.2432 24.8032C19.1618 24.8866 19.0514 24.9334 18.9363 24.9334H14.3059C14.1907 24.9334 14.0803 24.8866 13.9989 24.8032C13.9175 24.7199 13.8717 24.6068 13.8717 24.4889C13.8717 24.3711 13.9175 24.258 13.9989 24.1747C14.0803 24.0913 14.1907 24.0445 14.3059 24.0445H18.9363C19.0514 24.0445 19.1618 24.0913 19.2432 24.1747C19.3246 24.258 19.3704 24.3711 19.3704 24.4889ZM23.2852 22.0445C23.1975 22.2027 23.0701 22.3342 22.9162 22.4253C22.7624 22.5165 22.5876 22.564 22.4098 22.563H10.833C10.655 22.5626 10.4802 22.5142 10.3262 22.4226C10.1723 22.331 10.0447 22.1995 9.95619 22.0413C9.86771 21.8831 9.82152 21.7039 9.82227 21.5216C9.82303 21.3393 9.8707 21.1604 9.96049 21.003C10.3693 20.2815 10.9777 18.2475 10.9777 15.6C10.9777 14.0677 11.5723 12.5981 12.6306 11.5145C13.689 10.431 15.1244 9.82227 16.6211 9.82227C18.1178 9.82227 19.5532 10.431 20.6115 11.5145C21.6698 12.5981 22.2644 14.0677 22.2644 15.6C22.2644 18.2467 22.8736 20.2815 23.2831 21.003C23.3738 21.1607 23.4219 21.3404 23.4223 21.5234C23.4226 21.7065 23.3753 21.8864 23.2852 22.0445ZM22.5321 21.4519C21.9844 20.4889 21.3962 18.243 21.3962 15.6C21.3962 14.3034 20.8931 13.0599 19.9976 12.1431C19.1021 11.2262 17.8875 10.7112 16.6211 10.7112C15.3546 10.7112 14.14 11.2262 13.2445 12.1431C12.349 13.0599 11.8459 14.3034 11.8459 15.6C11.8459 18.2437 11.257 20.4889 10.7093 21.4519C10.6966 21.4744 10.6899 21.5 10.6899 21.526C10.6899 21.552 10.6966 21.5775 10.7093 21.6C10.7212 21.6227 10.739 21.6416 10.7607 21.6547C10.7824 21.6678 10.8072 21.6745 10.8323 21.6741H22.4091C22.4342 21.6745 22.459 21.6678 22.4807 21.6547C22.5024 21.6416 22.5202 21.6227 22.5321 21.6C22.5448 21.5775 22.5515 21.552 22.5515 21.526C22.5515 21.5 22.5448 21.4744 22.5321 21.4519Z" fill="white"/>
</svg>
