<svg width="24" height="24" viewBox="0 0 24 24" fill="none" xmlns="http://www.w3.org/2000/svg">
<path d="M9.65329 19.7143H24V21.4286H9.65329V19.7143ZM2.65414 20.5714L0.0102479 22.7829L1.45517 24L5.55423 20.5714L1.45517 17.1429L0 18.3514L2.65414 20.5714ZM9.65329 11.1429H24V12.8571H9.65329V11.1429ZM2.65414 12L0.0102479 14.2114L1.45517 15.4286L5.55423 12L1.45517 8.57143L0 9.78L2.65414 12ZM9.65329 2.57143H24V4.28571H9.65329V2.57143ZM2.65414 3.42857L0.0102479 5.64L1.45517 6.85714L5.55423 3.42857L1.45517 0L0 1.20857L2.65414 3.42857Z" fill="white"/>
</svg>
